<svg width="318" height="279" fill="none" xmlns="http://www.w3.org/2000/svg"><g clip-path="url(#clip0)"><mask id="a" maskUnits="userSpaceOnUse" x="3" y="1" width="311" height="277"><path fill-rule="evenodd" clip-rule="evenodd" d="M309.34 124.5a30 30 0 0 1 0 30l-62.43 108.131a30 30 0 0 1-25.981 15H96.07a30 30 0 0 1-25.98-15L7.66 154.5a30 30 0 0 1 0-30L70.09 16.369a30 30 0 0 1 25.98-15H220.93a30 30 0 0 1 25.981 15L309.34 124.5z" fill="#fff"/></mask><g mask="url(#a)"><path fill="#FFE01C" d="M-58.5 -12H396.5V291H-58.5z"/></g><g clip-path="url(#clip1)"><path d="M133.334 114.333H83V215h100.667V114.333h-50.333z" fill="#979595"/><path d="M133.334 64v100.666H234V64H133.334z" fill="#717070"/><path d="M83 215h50.333v-50.333H83V215zm100.667-100.667H234V64h-50.333v50.333z" fill="#383636"/><path d="M133.334 164.667h50.333v-50.333h-50.333v50.333z" fill="#100000"/></g></g><defs><clipPath id="clip0"><path fill="#fff" d="M0 0H318V279H0z"/></clipPath><clipPath id="clip1"><path fill="#fff" transform="translate(83 64)" d="M0 0H151V151H0z"/></clipPath></defs></svg>